# xmcd
#
# Track frame offsets: 
#        182
#        31740
#        54812
#        89170
#        113650
#        153940
#        189152
#        223142
#
# Disc length: 3372 seconds
#
# Revision: 2
# Processed by: cddbd v1.5.2PL0 Copyright (c) Steve Scherf et al.
# Submitted via: ExactAudioCopy v1.0b6
#
DISCID=5e0d2a08
DTITLE=Laurent de Wilde - Colors of Manhattan [E.Henderson, I.Coleman,
DTITLE=L.Nash]
DYEAR=1990
DGENRE=Jazz
TTITLE0=Everytime we say goodbye
TTITLE1=Old devil moon
TTITLE2=Goodbye
TTITLE3=El gaucho
TTITLE4=Fleurette africaine
TTITLE5=Armaggedon
TTITLE6=For all we know
TTITLE7=You've changed
EXTD=YEAR: 1990
EXTT0=
EXTT1=
EXTT2=
EXTT3=
EXTT4=
EXTT5=
EXTT6=
EXTT7=
PLAYORDER=
